
<svg stroke-dasharray="none" shape-rendering="auto"
     xmlns="http://www.w3.org/2000/svg" font-family="Helvetica"
     text-rendering="auto" width="370" fill-opacity="1"
     contentScriptType="text/ecmascript"
     xmlns:diagram="http://www.eclipse.org/sirius/diagram/1.1.0"
     color-interpolation="auto" color-rendering="auto"
     preserveAspectRatio="xMidYMid meet" font-size="12"
     diagram:semanticRoot="platform:/resource/FireFightingUAV-pd/software/gcs.rct#/"
     viewBox="0 0 370 317" fill="black"
     xmlns:xlink="http://www.w3.org/1999/xlink" stroke="black"
     image-rendering="auto" stroke-miterlimit="10" zoomAndPan="magnify"
     version="1.0" stroke-linejoin="miter" stroke-linecap="square"
     contentStyleType="text/css" font-style="normal" stroke-width="1"
     height="317" stroke-dashoffset="0" font-weight="normal" stroke-opacity="1">
    <!--Generated by the Batik Graphics2D SVG Generator-->
    <defs id="genericDefs"/>
    <g>
        <defs id="defs1">
            <linearGradient x1="176" xmlns:xlink="http://www.w3.org/1999/xlink"
                            gradientUnits="userSpaceOnUse" y1="145" x2="214"
                            y2="145" xlink:type="simple" xlink:actuate="onLoad"
                            id="linearGradient1" xlink:show="other"
                            spreadMethod="pad">
                <stop stop-opacity="1" stop-color="white" offset="0%"/>
                <stop stop-opacity="1" stop-color="white" offset="100%"/>
            </linearGradient>
            <linearGradient x1="10" xmlns:xlink="http://www.w3.org/1999/xlink"
                            gradientUnits="userSpaceOnUse" y1="91" x2="214"
                            y2="91" xlink:type="simple" xlink:actuate="onLoad"
                            id="linearGradient2" xlink:show="other"
                            spreadMethod="pad">
                <stop stop-opacity="1" stop-color="white" offset="0%"/>
                <stop stop-opacity="1" stop-color="white" offset="100%"/>
            </linearGradient>
            <linearGradient x1="88" xmlns:xlink="http://www.w3.org/1999/xlink"
                            gradientUnits="userSpaceOnUse" y1="50" x2="214"
                            y2="50" xlink:type="simple" xlink:actuate="onLoad"
                            id="linearGradient3" xlink:show="other"
                            spreadMethod="pad">
                <stop stop-opacity="1" stop-color="white" offset="0%"/>
                <stop stop-opacity="1" stop-color="white" offset="100%"/>
            </linearGradient>
            <linearGradient x1="217" xmlns:xlink="http://www.w3.org/1999/xlink"
                            gradientUnits="userSpaceOnUse" y1="10" x2="358"
                            y2="10" xlink:type="simple" xlink:actuate="onLoad"
                            id="linearGradient4" xlink:show="other"
                            spreadMethod="pad">
                <stop stop-opacity="1" stop-color="white" offset="0%"/>
                <stop stop-opacity="1" stop-color="white" offset="100%"/>
            </linearGradient>
            <clipPath clipPathUnits="userSpaceOnUse" id="clipPath1">
                <path d="M175 144 L217 144 L217 189 L175 189 L175 144 Z"/>
            </clipPath>
            <clipPath clipPathUnits="userSpaceOnUse" id="clipPath2">
                <path d="M175 144 L215 144 L215 187 L175 187 L175 144 Z"/>
            </clipPath>
            <clipPath clipPathUnits="userSpaceOnUse" id="clipPath3">
                <path d="M181 149 L212 149 L212 169 L181 169 L181 149 Z"/>
            </clipPath>
            <clipPath clipPathUnits="userSpaceOnUse" id="clipPath4">
                <path d="M176 172 L214 172 L214 186 L176 186 L176 172 Z"/>
            </clipPath>
            <clipPath clipPathUnits="userSpaceOnUse" id="clipPath5">
                <path d="M9 90 L217 90 L217 143 L9 143 L9 90 Z"/>
            </clipPath>
            <clipPath clipPathUnits="userSpaceOnUse" id="clipPath6">
                <path d="M9 90 L215 90 L215 141 L9 141 L9 90 Z"/>
            </clipPath>
            <clipPath clipPathUnits="userSpaceOnUse" id="clipPath7">
                <path d="M55 95 L172 95 L172 115 L55 115 L55 95 Z"/>
            </clipPath>
            <clipPath clipPathUnits="userSpaceOnUse" id="clipPath8">
                <path d="M14 120 L210 120 L210 140 L14 140 L14 120 Z"/>
            </clipPath>
            <clipPath clipPathUnits="userSpaceOnUse" id="clipPath9">
                <path d="M14 120 L213 120 L213 140 L14 140 L14 120 Z"/>
            </clipPath>
            <clipPath clipPathUnits="userSpaceOnUse" id="clipPath10">
                <path d="M10 118 L214 118 L214 140 L10 140 L10 118 Z"/>
            </clipPath>
            <clipPath clipPathUnits="userSpaceOnUse" id="clipPath11">
                <path d="M87 49 L217 49 L217 94 L87 94 L87 49 Z"/>
            </clipPath>
            <clipPath clipPathUnits="userSpaceOnUse" id="clipPath12">
                <path d="M87 49 L215 49 L215 92 L87 92 L87 49 Z"/>
            </clipPath>
            <clipPath clipPathUnits="userSpaceOnUse" id="clipPath13">
                <path d="M94 54 L210 54 L210 74 L94 74 L94 54 Z"/>
            </clipPath>
            <clipPath clipPathUnits="userSpaceOnUse" id="clipPath14">
                <path d="M88 77 L214 77 L214 91 L88 91 L88 77 Z"/>
            </clipPath>
            <clipPath clipPathUnits="userSpaceOnUse" id="clipPath15">
                <path d="M216 9 L361 9 L361 308 L216 308 L216 9 Z"/>
            </clipPath>
            <clipPath clipPathUnits="userSpaceOnUse" id="clipPath16">
                <path d="M216 9 L359 9 L359 306 L216 306 L216 9 Z"/>
            </clipPath>
            <clipPath clipPathUnits="userSpaceOnUse" id="clipPath17">
                <path d="M235 14 L340 14 L340 34 L235 34 L235 14 Z"/>
            </clipPath>
            <clipPath clipPathUnits="userSpaceOnUse" id="clipPath18">
                <path d="M235 14 L343 14 L343 34 L235 34 L235 14 Z"/>
            </clipPath>
            <clipPath clipPathUnits="userSpaceOnUse" id="clipPath19">
                <path d="M221 39 L296 39 L296 59 L221 59 L221 39 Z"/>
            </clipPath>
            <clipPath clipPathUnits="userSpaceOnUse" id="clipPath20">
                <path d="M221 57 L287 57 L287 77 L221 77 L221 57 Z"/>
            </clipPath>
            <clipPath clipPathUnits="userSpaceOnUse" id="clipPath21">
                <path d="M221 75 L304 75 L304 95 L221 95 L221 75 Z"/>
            </clipPath>
            <clipPath clipPathUnits="userSpaceOnUse" id="clipPath22">
                <path d="M221 93 L289 93 L289 113 L221 113 L221 93 Z"/>
            </clipPath>
            <clipPath clipPathUnits="userSpaceOnUse" id="clipPath23">
                <path d="M221 111 L310 111 L310 131 L221 131 L221 111 Z"/>
            </clipPath>
            <clipPath clipPathUnits="userSpaceOnUse" id="clipPath24">
                <path d="M221 129 L302 129 L302 149 L221 149 L221 129 Z"/>
            </clipPath>
            <clipPath clipPathUnits="userSpaceOnUse" id="clipPath25">
                <path d="M221 147 L282 147 L282 167 L221 167 L221 147 Z"/>
            </clipPath>
            <clipPath clipPathUnits="userSpaceOnUse" id="clipPath26">
                <path d="M221 165 L306 165 L306 185 L221 185 L221 165 Z"/>
            </clipPath>
            <clipPath clipPathUnits="userSpaceOnUse" id="clipPath27">
                <path d="M221 183 L330 183 L330 203 L221 203 L221 183 Z"/>
            </clipPath>
            <clipPath clipPathUnits="userSpaceOnUse" id="clipPath28">
                <path d="M221 201 L304 201 L304 221 L221 221 L221 201 Z"/>
            </clipPath>
            <clipPath clipPathUnits="userSpaceOnUse" id="clipPath29">
                <path d="M221 219 L278 219 L278 239 L221 239 L221 219 Z"/>
            </clipPath>
            <clipPath clipPathUnits="userSpaceOnUse" id="clipPath30">
                <path d="M221 237 L292 237 L292 257 L221 257 L221 237 Z"/>
            </clipPath>
            <clipPath clipPathUnits="userSpaceOnUse" id="clipPath31">
                <path d="M221 255 L331 255 L331 275 L221 275 L221 255 Z"/>
            </clipPath>
            <clipPath clipPathUnits="userSpaceOnUse" id="clipPath32">
                <path d="M221 273 L287 273 L287 290 L221 290 L221 273 Z"/>
            </clipPath>
            <clipPath clipPathUnits="userSpaceOnUse" id="clipPath33">
                <path d="M221 288 L282 288 L282 305 L221 305 L221 288 Z"/>
            </clipPath>
            <clipPath clipPathUnits="userSpaceOnUse" id="clipPath34">
                <path d="M217 37 L358 37 L358 305 L217 305 L217 37 Z"/>
            </clipPath>
        </defs>
        <g font-size="13" fill="rgb(131,122,133)"
           font-family="&apos;Noto Sans&apos;" stroke-linejoin="round"
           stroke="rgb(131,122,133)" stroke-width="0" stroke-miterlimit="0">
            <rect x="177" y="146" clip-path="url(#clipPath1)" width="38" rx="0"
                  height="41" ry="0" opacity="0.2549" stroke="none"/>
            <rect x="178" y="147" clip-path="url(#clipPath1)" width="38" rx="0"
                  height="41" ry="0" opacity="0.2549" stroke="none"/>
            <rect x="176" y="145" clip-path="url(#clipPath2)"
                  fill="url(#linearGradient1)" width="38" rx="0" height="41"
                  ry="0" stroke="none"/>
        </g>
        <g font-size="13" stroke-width="1.1" font-family="&apos;Noto Sans&apos;"
           stroke-linecap="butt">
            <rect x="176" y="145" clip-path="url(#clipPath2)" fill="none"
                  width="37" rx="0" height="40" ry="0"/>
            <text x="182" xml:space="preserve" y="164"
                  clip-path="url(#clipPath3)" stroke="none">GCS</text>
            <line clip-path="url(#clipPath4)" fill="none" x1="177" x2="213"
                  y1="173" y2="173"/>
            <rect x="11" y="92" clip-path="url(#clipPath5)"
                  fill="rgb(131,122,133)" width="204" rx="0" height="49" ry="0"
                  opacity="0.2549" stroke="none"/>
            <rect x="12" y="93" clip-path="url(#clipPath5)"
                  fill="rgb(131,122,133)" width="204" rx="0" height="49" ry="0"
                  opacity="0.2549" stroke="none"/>
            <rect x="10" y="91" clip-path="url(#clipPath6)"
                  fill="url(#linearGradient2)" width="204" rx="0" height="49"
                  ry="0" stroke="none"/>
            <rect x="10" y="91" clip-path="url(#clipPath6)" fill="none"
                  width="203" rx="0" height="48" ry="0"/>
            <text x="56" xml:space="preserve" y="110"
                  clip-path="url(#clipPath7)" stroke="none">GCSMissionEvents</text>
            <svg contentScriptType="text/ecmascript" zoomAndPan="magnify"
                 xmlns:rdf="http://www.w3.org/1999/02/22-rdf-syntax-ns#"
                 xmlns:xlink="http://www.w3.org/1999/xlink"
                 xmlns:svg="http://www.w3.org/2000/svg"
                 contentStyleType="text/css" id="svg2replaced0" version="1.1"
                 xml:space="preserve" width="16"
                 xmlns:dc="http://purl.org/dc/elements/1.1/"
                 xmlns:cc="http://creativecommons.org/ns#"
                 preserveAspectRatio="xMidYMid meet" viewBox="0 0 16 15.999999"
                 height="16" xmlns="http://www.w3.org/2000/svg" x="15" y="122">
                <metadata id="metadata8replaced0">
                    <rdf:RDF>
                        <cc:Work rdf:about="">
                            <dc:format>image/svg+xml</dc:format><dc:type rdf:resource="http://purl.org/dc/dcmitype/StillImage"/>
                            <dc:title/></cc:Work></rdf:RDF></metadata>
                <defs id="defs6replaced0"/>
                <g id="g10replaced0"
                   transform="matrix(1.25,0,0,-1.25,8.5106511e-4,17.251461)">
                    <g id="g12replaced0"
                       transform="matrix(0.04845402,0,0,0.04845402,3.1425684,0.51606285)">
                        <path id="path14replaced0"
                              d="m 15.3906,10.0117 c -0.6992,0 -1.4101,0.1485 -2.0312,0.5391 -1.6406,0.9805 -2.3789,3.0078 -1.7188,4.8086 L 53.3984,130.238 2.89063,144.648 c -1.28907,0.364 -2.300786,1.372 -2.730474,2.661 -0.390625,1.293 -0.082031,2.73 0.78125,3.75 L 103.398,272.781 c 1.211,1.438 3.282,1.797 4.922,0.938 1.68,-0.899 2.5,-2.821 1.95,-4.649 L 80.7383,166.609 131.52,152.148 c 1.332,-0.386 2.351,-1.398 2.742,-2.687 0.386,-1.332 0.117,-2.742 -0.782,-3.789 L 18.4414,11.4102 C 17.6602,10.4688 16.5195,10.0117 15.3906,10.0117 Z M 11.0508,150.629 59.7305,136.762 c 1.0898,-0.313 1.9492,-1.012 2.4609,-2.032 0.5078,-0.968 0.5781,-2.152 0.1875,-3.16 L 26.6797,33.3281 123.32,146.18 74.6914,160.039 c -1.0195,0.281 -1.8828,0.981 -2.3906,1.922 -0.5391,0.898 -0.6602,1.988 -0.3516,3.051 L 97.3789,253.211 11.0508,150.629 Z"
                              style="fill:#000000;fill-opacity:1;fill-rule:nonzero;stroke:none"/></g></g></svg>
            <text x="34" xml:space="preserve" y="135"
                  clip-path="url(#clipPath9)" stroke="none">missionStatus: MissionStatus</text>
            <line clip-path="url(#clipPath10)" fill="none" x1="11" x2="213"
                  y1="119" y2="119"/>
            <rect x="89" y="51" clip-path="url(#clipPath11)"
                  fill="rgb(131,122,133)" width="126" rx="0" height="41" ry="0"
                  opacity="0.2549" stroke="none"/>
            <rect x="90" y="52" clip-path="url(#clipPath11)"
                  fill="rgb(131,122,133)" width="126" rx="0" height="41" ry="0"
                  opacity="0.2549" stroke="none"/>
            <rect x="88" y="50" clip-path="url(#clipPath12)"
                  fill="url(#linearGradient3)" width="126" rx="0" height="41"
                  ry="0" stroke="none"/>
            <rect x="88" y="50" clip-path="url(#clipPath12)" fill="none"
                  width="125" rx="0" height="40" ry="0"/>
            <text x="95" xml:space="preserve" y="69"
                  clip-path="url(#clipPath13)" stroke="none">GCSControlEvents</text>
            <line clip-path="url(#clipPath14)" fill="none" x1="89" x2="213"
                  y1="78" y2="78"/>
            <rect x="218" y="11" clip-path="url(#clipPath15)"
                  fill="rgb(131,122,133)" width="141" rx="0" height="295" ry="0"
                  opacity="0.2549" stroke="none"/>
            <rect x="219" y="12" clip-path="url(#clipPath15)"
                  fill="rgb(131,122,133)" width="141" rx="0" height="295" ry="0"
                  opacity="0.2549" stroke="none"/>
            <rect x="217" y="10" clip-path="url(#clipPath16)"
                  fill="url(#linearGradient4)" width="141" rx="0" height="295"
                  ry="0" stroke="none"/>
            <rect x="217" y="10" clip-path="url(#clipPath16)" fill="none"
                  width="140" rx="0" height="294" ry="0"/>
            <svg contentScriptType="text/ecmascript" zoomAndPan="magnify"
                 xmlns:rdf="http://www.w3.org/1999/02/22-rdf-syntax-ns#"
                 xmlns:xlink="http://www.w3.org/1999/xlink"
                 xmlns:svg="http://www.w3.org/2000/svg"
                 contentStyleType="text/css" id="Capa_1replaced1"
                 sodipodi:docname="_base64_enumeration.svg" version="1.1"
                 width="16" xml:space="preserve"
                 xmlns:sodipodi="http://sodipodi.sourceforge.net/DTD/sodipodi-0.dtd"
                 xmlns:dc="http://purl.org/dc/elements/1.1/"
                 xmlns:inkscape="http://www.inkscape.org/namespaces/inkscape"
                 xmlns:cc="http://creativecommons.org/ns#"
                 preserveAspectRatio="xMidYMid meet"
                 inkscape:version="0.92.2 5c3e80d, 2017-08-06"
                 viewBox="0 0 15.999999 15.999999" height="16"
                 xmlns="http://www.w3.org/2000/svg" x="236" y="16">
                <sodipodi:namedview objecttolerance="10" bordercolor="#666666"
                                    inkscape:window-height="480"
                                    inkscape:zoom="14.75" gridtolerance="10"
                                    id="namedview63replaced1"
                                    inkscape:current-layer="Capa_1"
                                    inkscape:window-y="0" inkscape:cy="8"
                                    inkscape:window-x="0" inkscape:cx="8"
                                    showgrid="false" guidetolerance="10"
                                    inkscape:pageopacity="0"
                                    inkscape:pageshadow="2"
                                    inkscape:window-width="640"
                                    inkscape:window-maximized="0"
                                    pagecolor="#ffffff" borderopacity="1"/>
                <metadata id="metadata854replaced1">
                    <rdf:RDF>
                        <cc:Work rdf:about="">
                            <dc:format>image/svg+xml</dc:format><dc:type rdf:resource="http://purl.org/dc/dcmitype/StillImage"/>
                            <dc:title/></cc:Work></rdf:RDF></metadata>
                <defs id="defs852replaced1"/>
                <g id="g817replaced1" style="fill:#000000"
                   transform="matrix(0.03925417,0,0,0.03925417,-1.9473085e-5,1.54e-7)">
                    <path id="path815replaced1"
                          d="M 325.882,57.79 H 81.717 c -11.748,0 -21.306,9.552 -21.306,21.293 v 249.425 c 0,11.738 9.552,21.291 21.306,21.291 h 244.165 c 11.744,0 21.302,-9.553 21.302,-21.291 V 79.089 C 347.178,67.348 337.626,57.79 325.882,57.79 Z M 203.422,252.219 H 96.532 V 87.308 h 106.042 v 30.44 h -65.089 v 36.739 h 56.061 v 30.547 h -56.061 v 36.738 h 65.943 v 30.446 h -0.006 z M 365.832,0 H 41.763 C 20.626,0 3.485,17.142 3.485,38.281 v 331.035 c 0,21.144 17.141,38.284 38.278,38.284 h 324.075 c 21.138,0 38.278,-17.141 38.278,-38.284 V 38.275 C 404.116,17.142 386.976,0 365.832,0 Z m -3.558,328.509 c 0,20.055 -16.326,36.387 -36.393,36.387 H 81.717 c -20.064,0 -36.396,-16.326 -36.396,-36.387 V 79.089 c 0,-20.058 16.325,-36.39 36.396,-36.39 h 244.165 c 20.061,0 36.393,16.326 36.393,36.39 v 249.42 z"
                          style="fill:#000000"/></g>
                <g id="g819replaced1" transform="translate(-3.485,-391.6)"/>
                <g id="g821replaced1" transform="translate(-3.485,-391.6)"/>
                <g id="g823replaced1" transform="translate(-3.485,-391.6)"/>
                <g id="g825replaced1" transform="translate(-3.485,-391.6)"/>
                <g id="g827replaced1" transform="translate(-3.485,-391.6)"/>
                <g id="g829replaced1" transform="translate(-3.485,-391.6)"/>
                <g id="g831replaced1" transform="translate(-3.485,-391.6)"/>
                <g id="g833replaced1" transform="translate(-3.485,-391.6)"/>
                <g id="g835replaced1" transform="translate(-3.485,-391.6)"/>
                <g id="g837replaced1" transform="translate(-3.485,-391.6)"/>
                <g id="g839replaced1" transform="translate(-3.485,-391.6)"/>
                <g id="g841replaced1" transform="translate(-3.485,-391.6)"/>
                <g id="g843replaced1" transform="translate(-3.485,-391.6)"/>
                <g id="g845replaced1" transform="translate(-3.485,-391.6)"/>
                <g id="g847replaced1" transform="translate(-3.485,-391.6)"/></svg>
            <text x="255" xml:space="preserve" y="29"
                  clip-path="url(#clipPath18)" stroke="none">MissionStatus</text>
            <text x="222" xml:space="preserve" y="54"
                  clip-path="url(#clipPath19)" stroke="none"> Connected</text>
            <text x="222" xml:space="preserve" y="72"
                  clip-path="url(#clipPath20)" stroke="none"> TakingOff</text>
            <text x="222" xml:space="preserve" y="90"
                  clip-path="url(#clipPath21)" stroke="none"> FlyingToWall</text>
            <text x="222" xml:space="preserve" y="108"
                  clip-path="url(#clipPath22)" stroke="none"> Searching</text>
            <text x="222" xml:space="preserve" y="126"
                  clip-path="url(#clipPath23)" stroke="none"> DetectedFire</text>
            <text x="222" xml:space="preserve" y="144"
                  clip-path="url(#clipPath24)" stroke="none"> TrackingFire</text>
            <text x="222" xml:space="preserve" y="162"
                  clip-path="url(#clipPath25)" stroke="none"> Spraying</text>
            <text x="222" xml:space="preserve" y="180"
                  clip-path="url(#clipPath26)" stroke="none"> LostTracking</text>
            <text x="222" xml:space="preserve" y="198"
                  clip-path="url(#clipPath27)" stroke="none"> SearchComplete</text>
            <text x="222" xml:space="preserve" y="216"
                  clip-path="url(#clipPath28)" stroke="none"> GoingHome</text>
            <text x="222" xml:space="preserve" y="234"
                  clip-path="url(#clipPath29)" stroke="none"> Landing</text>
            <text x="222" xml:space="preserve" y="252"
                  clip-path="url(#clipPath30)" stroke="none"> Disarming</text>
            <text x="222" xml:space="preserve" y="270"
                  clip-path="url(#clipPath31)" stroke="none"> ConnectTimeout</text>
            <text x="222" y="287" clip-path="url(#clipPath32)"
                  font-family="&apos;Liberation Sans Narrow&apos;" stroke="none"
                  xml:space="preserve"> BatteryError</text>
            <text x="222" y="302" clip-path="url(#clipPath33)"
                  font-family="&apos;Liberation Sans Narrow&apos;" stroke="none"
                  xml:space="preserve"> WaterError</text>
            <line clip-path="url(#clipPath34)" fill="none" x1="218" x2="357"
                  y1="38" y2="38"/>
        </g>
    </g>
</svg>