
<svg stroke-dasharray="none" shape-rendering="auto"
     xmlns="http://www.w3.org/2000/svg" font-family="Helvetica"
     text-rendering="auto" width="549" fill-opacity="1"
     contentScriptType="text/ecmascript"
     xmlns:diagram="http://www.eclipse.org/sirius/diagram/1.1.0"
     color-interpolation="auto" color-rendering="auto"
     preserveAspectRatio="xMidYMid meet" font-size="12"
     diagram:semanticRoot="platform:/resource/FireFightingUAV-pd/software/m600.rct#/"
     viewBox="0 0 549 147" fill="black"
     xmlns:xlink="http://www.w3.org/1999/xlink" stroke="black"
     image-rendering="auto" stroke-miterlimit="10" zoomAndPan="magnify"
     version="1.0" stroke-linejoin="miter" stroke-linecap="square"
     contentStyleType="text/css" font-style="normal" stroke-width="1"
     height="147" stroke-dashoffset="0" font-weight="normal" stroke-opacity="1">
    <!--Generated by the Batik Graphics2D SVG Generator-->
    <defs id="genericDefs"/>
    <g>
        <defs id="defs1">
            <linearGradient x1="10" xmlns:xlink="http://www.w3.org/1999/xlink"
                            gradientUnits="userSpaceOnUse" y1="10" x2="319"
                            y2="10" xlink:type="simple" xlink:actuate="onLoad"
                            id="linearGradient1" xlink:show="other"
                            spreadMethod="pad">
                <stop stop-opacity="1" stop-color="white" offset="0%"/>
                <stop stop-opacity="1" stop-color="white" offset="100%"/>
            </linearGradient>
            <linearGradient x1="324" xmlns:xlink="http://www.w3.org/1999/xlink"
                            gradientUnits="userSpaceOnUse" y1="91" x2="435"
                            y2="91" xlink:type="simple" xlink:actuate="onLoad"
                            id="linearGradient2" xlink:show="other"
                            spreadMethod="pad">
                <stop stop-opacity="1" stop-color="white" offset="0%"/>
                <stop stop-opacity="1" stop-color="white" offset="100%"/>
            </linearGradient>
            <linearGradient x1="324" xmlns:xlink="http://www.w3.org/1999/xlink"
                            gradientUnits="userSpaceOnUse" y1="10" x2="435"
                            y2="10" xlink:type="simple" xlink:actuate="onLoad"
                            id="linearGradient3" xlink:show="other"
                            spreadMethod="pad">
                <stop stop-opacity="1" stop-color="white" offset="0%"/>
                <stop stop-opacity="1" stop-color="white" offset="100%"/>
            </linearGradient>
            <linearGradient x1="439" xmlns:xlink="http://www.w3.org/1999/xlink"
                            gradientUnits="userSpaceOnUse" y1="10" x2="537"
                            y2="10" xlink:type="simple" xlink:actuate="onLoad"
                            id="linearGradient4" xlink:show="other"
                            spreadMethod="pad">
                <stop stop-opacity="1" stop-color="white" offset="0%"/>
                <stop stop-opacity="1" stop-color="white" offset="100%"/>
            </linearGradient>
            <clipPath clipPathUnits="userSpaceOnUse" id="clipPath1">
                <path d="M9 9 L322 9 L322 138 L9 138 L9 9 Z"/>
            </clipPath>
            <clipPath clipPathUnits="userSpaceOnUse" id="clipPath2">
                <path d="M9 9 L320 9 L320 136 L9 136 L9 9 Z"/>
            </clipPath>
            <clipPath clipPathUnits="userSpaceOnUse" id="clipPath3">
                <path d="M127 14 L205 14 L205 32 L127 32 L127 14 Z"/>
            </clipPath>
            <clipPath clipPathUnits="userSpaceOnUse" id="clipPath4">
                <path d="M14 37 L116 37 L116 55 L14 55 L14 37 Z"/>
            </clipPath>
            <clipPath clipPathUnits="userSpaceOnUse" id="clipPath5">
                <path d="M14 37 L118 37 L118 55 L14 55 L14 37 Z"/>
            </clipPath>
            <clipPath clipPathUnits="userSpaceOnUse" id="clipPath6">
                <path d="M14 53 L128 53 L128 71 L14 71 L14 53 Z"/>
            </clipPath>
            <clipPath clipPathUnits="userSpaceOnUse" id="clipPath7">
                <path d="M14 53 L131 53 L131 71 L14 71 L14 53 Z"/>
            </clipPath>
            <clipPath clipPathUnits="userSpaceOnUse" id="clipPath8">
                <path d="M14 69 L252 69 L252 87 L14 87 L14 69 Z"/>
            </clipPath>
            <clipPath clipPathUnits="userSpaceOnUse" id="clipPath9">
                <path d="M14 69 L255 69 L255 87 L14 87 L14 69 Z"/>
            </clipPath>
            <clipPath clipPathUnits="userSpaceOnUse" id="clipPath10">
                <path d="M14 85 L268 85 L268 103 L14 103 L14 85 Z"/>
            </clipPath>
            <clipPath clipPathUnits="userSpaceOnUse" id="clipPath11">
                <path d="M14 85 L271 85 L271 103 L14 103 L14 85 Z"/>
            </clipPath>
            <clipPath clipPathUnits="userSpaceOnUse" id="clipPath12">
                <path d="M14 101 L254 101 L254 119 L14 119 L14 101 Z"/>
            </clipPath>
            <clipPath clipPathUnits="userSpaceOnUse" id="clipPath13">
                <path d="M14 101 L257 101 L257 119 L14 119 L14 101 Z"/>
            </clipPath>
            <clipPath clipPathUnits="userSpaceOnUse" id="clipPath14">
                <path d="M14 117 L315 117 L315 135 L14 135 L14 117 Z"/>
            </clipPath>
            <clipPath clipPathUnits="userSpaceOnUse" id="clipPath15">
                <path d="M14 117 L318 117 L318 135 L14 135 L14 117 Z"/>
            </clipPath>
            <clipPath clipPathUnits="userSpaceOnUse" id="clipPath16">
                <path d="M10 35 L319 35 L319 135 L10 135 L10 35 Z"/>
            </clipPath>
            <clipPath clipPathUnits="userSpaceOnUse" id="clipPath17">
                <path d="M323 90 L438 90 L438 138 L323 138 L323 90 Z"/>
            </clipPath>
            <clipPath clipPathUnits="userSpaceOnUse" id="clipPath18">
                <path d="M323 90 L436 90 L436 136 L323 136 L323 90 Z"/>
            </clipPath>
            <clipPath clipPathUnits="userSpaceOnUse" id="clipPath19">
                <path d="M346 95 L412 95 L412 113 L346 113 L346 95 Z"/>
            </clipPath>
            <clipPath clipPathUnits="userSpaceOnUse" id="clipPath20">
                <path d="M346 95 L415 95 L415 113 L346 113 L346 95 Z"/>
            </clipPath>
            <clipPath clipPathUnits="userSpaceOnUse" id="clipPath21">
                <path d="M328 118 L430 118 L430 135 L328 135 L328 118 Z"/>
            </clipPath>
            <clipPath clipPathUnits="userSpaceOnUse" id="clipPath22">
                <path d="M324 116 L435 116 L435 135 L324 135 L324 116 Z"/>
            </clipPath>
            <clipPath clipPathUnits="userSpaceOnUse" id="clipPath23">
                <path d="M323 9 L438 9 L438 87 L323 87 L323 9 Z"/>
            </clipPath>
            <clipPath clipPathUnits="userSpaceOnUse" id="clipPath24">
                <path d="M323 9 L436 9 L436 85 L323 85 L323 9 Z"/>
            </clipPath>
            <clipPath clipPathUnits="userSpaceOnUse" id="clipPath25">
                <path d="M337 14 L421 14 L421 32 L337 32 L337 14 Z"/>
            </clipPath>
            <clipPath clipPathUnits="userSpaceOnUse" id="clipPath26">
                <path d="M337 14 L424 14 L424 32 L337 32 L337 14 Z"/>
            </clipPath>
            <clipPath clipPathUnits="userSpaceOnUse" id="clipPath27">
                <path d="M328 37 L388 37 L388 54 L328 54 L328 37 Z"/>
            </clipPath>
            <clipPath clipPathUnits="userSpaceOnUse" id="clipPath28">
                <path d="M328 52 L366 52 L366 69 L328 69 L328 52 Z"/>
            </clipPath>
            <clipPath clipPathUnits="userSpaceOnUse" id="clipPath29">
                <path d="M328 67 L384 67 L384 84 L328 84 L328 67 Z"/>
            </clipPath>
            <clipPath clipPathUnits="userSpaceOnUse" id="clipPath30">
                <path d="M324 35 L435 35 L435 84 L324 84 L324 35 Z"/>
            </clipPath>
            <clipPath clipPathUnits="userSpaceOnUse" id="clipPath31">
                <path d="M438 9 L540 9 L540 102 L438 102 L438 9 Z"/>
            </clipPath>
            <clipPath clipPathUnits="userSpaceOnUse" id="clipPath32">
                <path d="M438 9 L538 9 L538 100 L438 100 L438 9 Z"/>
            </clipPath>
            <clipPath clipPathUnits="userSpaceOnUse" id="clipPath33">
                <path d="M440 14 L536 14 L536 32 L440 32 L440 14 Z"/>
            </clipPath>
            <clipPath clipPathUnits="userSpaceOnUse" id="clipPath34">
                <path d="M440 14 L539 14 L539 32 L440 32 L440 14 Z"/>
            </clipPath>
            <clipPath clipPathUnits="userSpaceOnUse" id="clipPath35">
                <path d="M443 37 L479 37 L479 54 L443 54 L443 37 Z"/>
            </clipPath>
            <clipPath clipPathUnits="userSpaceOnUse" id="clipPath36">
                <path d="M443 52 L479 52 L479 69 L443 69 L443 52 Z"/>
            </clipPath>
            <clipPath clipPathUnits="userSpaceOnUse" id="clipPath37">
                <path d="M443 67 L487 67 L487 84 L443 84 L443 67 Z"/>
            </clipPath>
            <clipPath clipPathUnits="userSpaceOnUse" id="clipPath38">
                <path d="M443 82 L498 82 L498 99 L443 99 L443 82 Z"/>
            </clipPath>
            <clipPath clipPathUnits="userSpaceOnUse" id="clipPath39">
                <path d="M439 35 L537 35 L537 99 L439 99 L439 35 Z"/>
            </clipPath>
        </defs>
        <g font-size="13" fill="rgb(131,122,133)" stroke-linejoin="round"
           stroke="rgb(131,122,133)" stroke-width="0" stroke-miterlimit="0">
            <rect x="11" y="11" clip-path="url(#clipPath1)" width="309" rx="0"
                  height="125" ry="0" opacity="0.2549" stroke="none"/>
            <rect x="12" y="12" clip-path="url(#clipPath1)" width="309" rx="0"
                  height="125" ry="0" opacity="0.2549" stroke="none"/>
            <rect x="10" y="10" clip-path="url(#clipPath2)"
                  fill="url(#linearGradient1)" width="309" rx="0" height="125"
                  ry="0" stroke="none"/>
        </g>
        <g font-size="13" stroke-width="1.1" stroke-linecap="butt">
            <rect x="10" y="10" clip-path="url(#clipPath2)" fill="none"
                  width="308" rx="0" height="124" ry="0"/>
            <text x="128" xml:space="preserve" y="28"
                  clip-path="url(#clipPath3)" stroke="none">M600Flight</text>
            <svg contentScriptType="text/ecmascript" zoomAndPan="magnify"
                 xmlns:rdf="http://www.w3.org/1999/02/22-rdf-syntax-ns#"
                 xmlns:xlink="http://www.w3.org/1999/xlink"
                 xmlns:svg="http://www.w3.org/2000/svg"
                 contentStyleType="text/css" id="svg2replaced0" version="1.1"
                 xml:space="preserve" width="16"
                 xmlns:dc="http://purl.org/dc/elements/1.1/"
                 xmlns:cc="http://creativecommons.org/ns#"
                 preserveAspectRatio="xMidYMid meet" viewBox="0 0 16 16.000025"
                 height="16" xmlns="http://www.w3.org/2000/svg" x="15" y="38">
                <metadata id="metadata8replaced0">
                    <rdf:RDF>
                        <cc:Work rdf:about="">
                            <dc:format>image/svg+xml</dc:format><dc:type rdf:resource="http://purl.org/dc/dcmitype/StillImage"/>
                            <dc:title/></cc:Work></rdf:RDF></metadata>
                <defs id="defs6replaced0">
                    <clipPath clipPathUnits="userSpaceOnUse"
                              id="clipPath18replaced0">
                        <path d="m 0,6 3870,0 0,4100 L 0,4106 0,6 Z"
                              id="path20replaced0"/></clipPath></defs>
                <g id="g10replaced0"
                   transform="matrix(1.25,0,0,-1.25,0,17.247584)">
                    <g id="g12replaced0"
                       transform="matrix(0.00312499,0,0,0.00312499,0.36626931,0.96685818)">
                        <g id="g14replaced0">
                            <g id="g16replaced0"
                               clip-path="url(#clipPath18replaced0)">
                                <path id="path22replaced0"
                                      d="M 1923.01,4106 C 804.102,4106 0,3294.4 0,2077.09 0,993.809 781.988,9.98047 1923.12,9.98047 3075.43,9.98047 3861.6,993.539 3861.6,2077.09 3861.6,3304.13 3031.84,4106 1923.01,4106 Z M 2636.25,2111.82 C 2635.98,1434.44 2599.84,469.91 1923.12,469.91 l 0,-0.16 c -667.1,0 -693.71,965.08 -693.71,1641.25 0,793.52 74.22,1554.26 693.71,1554.26 619.5,0 713.13,-770.31 713.13,-1553.44 z"
                                      style="fill:#000000;fill-opacity:1;fill-rule:nonzero;stroke:none"/></g></g></g></g></svg>
            <text x="34" font-size="12" y="51" clip-path="url(#clipPath5)"
                  stroke="none" xml:space="preserve">fcActivation()</text>
            <svg contentScriptType="text/ecmascript" zoomAndPan="magnify"
                 xmlns:rdf="http://www.w3.org/1999/02/22-rdf-syntax-ns#"
                 xmlns:xlink="http://www.w3.org/1999/xlink"
                 xmlns:svg="http://www.w3.org/2000/svg"
                 contentStyleType="text/css" id="svg2replaced1" version="1.1"
                 xml:space="preserve" width="16"
                 xmlns:dc="http://purl.org/dc/elements/1.1/"
                 xmlns:cc="http://creativecommons.org/ns#"
                 preserveAspectRatio="xMidYMid meet" viewBox="0 0 16 16.000025"
                 height="16" xmlns="http://www.w3.org/2000/svg" x="15" y="54">
                <metadata id="metadata8replaced1">
                    <rdf:RDF>
                        <cc:Work rdf:about="">
                            <dc:format>image/svg+xml</dc:format><dc:type rdf:resource="http://purl.org/dc/dcmitype/StillImage"/>
                            <dc:title/></cc:Work></rdf:RDF></metadata>
                <defs id="defs6replaced1">
                    <clipPath clipPathUnits="userSpaceOnUse"
                              id="clipPath18replaced1">
                        <path d="m 0,6 3870,0 0,4100 L 0,4106 0,6 Z"
                              id="path20replaced1"/></clipPath></defs>
                <g id="g10replaced1"
                   transform="matrix(1.25,0,0,-1.25,0,17.247584)">
                    <g id="g12replaced1"
                       transform="matrix(0.00312499,0,0,0.00312499,0.36626931,0.96685818)">
                        <g id="g14replaced1">
                            <g id="g16replaced1"
                               clip-path="url(#clipPath18replaced1)">
                                <path id="path22replaced1"
                                      d="M 1923.01,4106 C 804.102,4106 0,3294.4 0,2077.09 0,993.809 781.988,9.98047 1923.12,9.98047 3075.43,9.98047 3861.6,993.539 3861.6,2077.09 3861.6,3304.13 3031.84,4106 1923.01,4106 Z M 2636.25,2111.82 C 2635.98,1434.44 2599.84,469.91 1923.12,469.91 l 0,-0.16 c -667.1,0 -693.71,965.08 -693.71,1641.25 0,793.52 74.22,1554.26 693.71,1554.26 619.5,0 713.13,-770.31 713.13,-1553.44 z"
                                      style="fill:#000000;fill-opacity:1;fill-rule:nonzero;stroke:none"/></g></g></g></g></svg>
            <text x="34" font-size="12" y="67" clip-path="url(#clipPath7)"
                  stroke="none" xml:space="preserve">fcControlAuth()</text>
            <svg contentScriptType="text/ecmascript" zoomAndPan="magnify"
                 xmlns:rdf="http://www.w3.org/1999/02/22-rdf-syntax-ns#"
                 xmlns:xlink="http://www.w3.org/1999/xlink"
                 xmlns:svg="http://www.w3.org/2000/svg"
                 contentStyleType="text/css" id="svg2replaced2" version="1.1"
                 xml:space="preserve" width="16"
                 xmlns:dc="http://purl.org/dc/elements/1.1/"
                 xmlns:cc="http://creativecommons.org/ns#"
                 preserveAspectRatio="xMidYMid meet" viewBox="0 0 16 16.000025"
                 height="16" xmlns="http://www.w3.org/2000/svg" x="15" y="70">
                <metadata id="metadata8replaced2">
                    <rdf:RDF>
                        <cc:Work rdf:about="">
                            <dc:format>image/svg+xml</dc:format><dc:type rdf:resource="http://purl.org/dc/dcmitype/StillImage"/>
                            <dc:title/></cc:Work></rdf:RDF></metadata>
                <defs id="defs6replaced2">
                    <clipPath clipPathUnits="userSpaceOnUse"
                              id="clipPath18replaced2">
                        <path d="m 0,6 3870,0 0,4100 L 0,4106 0,6 Z"
                              id="path20replaced2"/></clipPath></defs>
                <g id="g10replaced2"
                   transform="matrix(1.25,0,0,-1.25,0,17.247584)">
                    <g id="g12replaced2"
                       transform="matrix(0.00312499,0,0,0.00312499,0.36626931,0.96685818)">
                        <g id="g14replaced2">
                            <g id="g16replaced2"
                               clip-path="url(#clipPath18replaced2)">
                                <path id="path22replaced2"
                                      d="M 1923.01,4106 C 804.102,4106 0,3294.4 0,2077.09 0,993.809 781.988,9.98047 1923.12,9.98047 3075.43,9.98047 3861.6,993.539 3861.6,2077.09 3861.6,3304.13 3031.84,4106 1923.01,4106 Z M 2636.25,2111.82 C 2635.98,1434.44 2599.84,469.91 1923.12,469.91 l 0,-0.16 c -667.1,0 -693.71,965.08 -693.71,1641.25 0,793.52 74.22,1554.26 693.71,1554.26 619.5,0 713.13,-770.31 713.13,-1553.44 z"
                                      style="fill:#000000;fill-opacity:1;fill-rule:nonzero;stroke:none"/></g></g></g></g></svg>
            <text x="34" font-size="12" y="83" clip-path="url(#clipPath9)"
                  stroke="none" xml:space="preserve">fcDroneTaskControl(task: M600Task)</text>
            <svg contentScriptType="text/ecmascript" zoomAndPan="magnify"
                 xmlns:rdf="http://www.w3.org/1999/02/22-rdf-syntax-ns#"
                 xmlns:xlink="http://www.w3.org/1999/xlink"
                 xmlns:svg="http://www.w3.org/2000/svg"
                 contentStyleType="text/css" id="svg2replaced3" version="1.1"
                 xml:space="preserve" width="16"
                 xmlns:dc="http://purl.org/dc/elements/1.1/"
                 xmlns:cc="http://creativecommons.org/ns#"
                 preserveAspectRatio="xMidYMid meet" viewBox="0 0 16 16.000025"
                 height="16" xmlns="http://www.w3.org/2000/svg" x="15" y="86">
                <metadata id="metadata8replaced3">
                    <rdf:RDF>
                        <cc:Work rdf:about="">
                            <dc:format>image/svg+xml</dc:format><dc:type rdf:resource="http://purl.org/dc/dcmitype/StillImage"/>
                            <dc:title/></cc:Work></rdf:RDF></metadata>
                <defs id="defs6replaced3">
                    <clipPath clipPathUnits="userSpaceOnUse"
                              id="clipPath18replaced3">
                        <path d="m 0,6 3870,0 0,4100 L 0,4106 0,6 Z"
                              id="path20replaced3"/></clipPath></defs>
                <g id="g10replaced3"
                   transform="matrix(1.25,0,0,-1.25,0,17.247584)">
                    <g id="g12replaced3"
                       transform="matrix(0.00312499,0,0,0.00312499,0.36626931,0.96685818)">
                        <g id="g14replaced3">
                            <g id="g16replaced3"
                               clip-path="url(#clipPath18replaced3)">
                                <path id="path22replaced3"
                                      d="M 1923.01,4106 C 804.102,4106 0,3294.4 0,2077.09 0,993.809 781.988,9.98047 1923.12,9.98047 3075.43,9.98047 3861.6,993.539 3861.6,2077.09 3861.6,3304.13 3031.84,4106 1923.01,4106 Z M 2636.25,2111.82 C 2635.98,1434.44 2599.84,469.91 1923.12,469.91 l 0,-0.16 c -667.1,0 -693.71,965.08 -693.71,1641.25 0,793.52 74.22,1554.26 693.71,1554.26 619.5,0 713.13,-770.31 713.13,-1553.44 z"
                                      style="fill:#000000;fill-opacity:1;fill-rule:nonzero;stroke:none"/></g></g></g></g></svg>
            <text x="34" font-size="12" y="99" clip-path="url(#clipPath11)"
                  stroke="none" xml:space="preserve">fcMissionWPUpload(pos: Seq(Position))</text>
            <svg contentScriptType="text/ecmascript" zoomAndPan="magnify"
                 xmlns:rdf="http://www.w3.org/1999/02/22-rdf-syntax-ns#"
                 xmlns:xlink="http://www.w3.org/1999/xlink"
                 xmlns:svg="http://www.w3.org/2000/svg"
                 contentStyleType="text/css" id="svg2replaced4" version="1.1"
                 xml:space="preserve" width="16"
                 xmlns:dc="http://purl.org/dc/elements/1.1/"
                 xmlns:cc="http://creativecommons.org/ns#"
                 preserveAspectRatio="xMidYMid meet" viewBox="0 0 16 16.000025"
                 height="16" xmlns="http://www.w3.org/2000/svg" x="15" y="102">
                <metadata id="metadata8replaced4">
                    <rdf:RDF>
                        <cc:Work rdf:about="">
                            <dc:format>image/svg+xml</dc:format><dc:type rdf:resource="http://purl.org/dc/dcmitype/StillImage"/>
                            <dc:title/></cc:Work></rdf:RDF></metadata>
                <defs id="defs6replaced4">
                    <clipPath clipPathUnits="userSpaceOnUse"
                              id="clipPath18replaced4">
                        <path d="m 0,6 3870,0 0,4100 L 0,4106 0,6 Z"
                              id="path20replaced4"/></clipPath></defs>
                <g id="g10replaced4"
                   transform="matrix(1.25,0,0,-1.25,0,17.247584)">
                    <g id="g12replaced4"
                       transform="matrix(0.00312499,0,0,0.00312499,0.36626931,0.96685818)">
                        <g id="g14replaced4">
                            <g id="g16replaced4"
                               clip-path="url(#clipPath18replaced4)">
                                <path id="path22replaced4"
                                      d="M 1923.01,4106 C 804.102,4106 0,3294.4 0,2077.09 0,993.809 781.988,9.98047 1923.12,9.98047 3075.43,9.98047 3861.6,993.539 3861.6,2077.09 3861.6,3304.13 3031.84,4106 1923.01,4106 Z M 2636.25,2111.82 C 2635.98,1434.44 2599.84,469.91 1923.12,469.91 l 0,-0.16 c -667.1,0 -693.71,965.08 -693.71,1641.25 0,793.52 74.22,1554.26 693.71,1554.26 619.5,0 713.13,-770.31 713.13,-1553.44 z"
                                      style="fill:#000000;fill-opacity:1;fill-rule:nonzero;stroke:none"/></g></g></g></g></svg>
            <text x="34" font-size="12" y="115" clip-path="url(#clipPath13)"
                  stroke="none" xml:space="preserve">fcMissionWPAction(act: M600Action)</text>
            <svg contentScriptType="text/ecmascript" zoomAndPan="magnify"
                 xmlns:rdf="http://www.w3.org/1999/02/22-rdf-syntax-ns#"
                 xmlns:xlink="http://www.w3.org/1999/xlink"
                 xmlns:svg="http://www.w3.org/2000/svg"
                 contentStyleType="text/css" id="svg2replaced5" version="1.1"
                 xml:space="preserve" width="16"
                 xmlns:dc="http://purl.org/dc/elements/1.1/"
                 xmlns:cc="http://creativecommons.org/ns#"
                 preserveAspectRatio="xMidYMid meet" viewBox="0 0 16 16.000025"
                 height="16" xmlns="http://www.w3.org/2000/svg" x="15" y="118">
                <metadata id="metadata8replaced5">
                    <rdf:RDF>
                        <cc:Work rdf:about="">
                            <dc:format>image/svg+xml</dc:format><dc:type rdf:resource="http://purl.org/dc/dcmitype/StillImage"/>
                            <dc:title/></cc:Work></rdf:RDF></metadata>
                <defs id="defs6replaced5">
                    <clipPath clipPathUnits="userSpaceOnUse"
                              id="clipPath18replaced5">
                        <path d="m 0,6 3870,0 0,4100 L 0,4106 0,6 Z"
                              id="path20replaced5"/></clipPath></defs>
                <g id="g10replaced5"
                   transform="matrix(1.25,0,0,-1.25,0,17.247584)">
                    <g id="g12replaced5"
                       transform="matrix(0.00312499,0,0,0.00312499,0.36626931,0.96685818)">
                        <g id="g14replaced5">
                            <g id="g16replaced5"
                               clip-path="url(#clipPath18replaced5)">
                                <path id="path22replaced5"
                                      d="M 1923.01,4106 C 804.102,4106 0,3294.4 0,2077.09 0,993.809 781.988,9.98047 1923.12,9.98047 3075.43,9.98047 3861.6,993.539 3861.6,2077.09 3861.6,3304.13 3031.84,4106 1923.01,4106 Z M 2636.25,2111.82 C 2635.98,1434.44 2599.84,469.91 1923.12,469.91 l 0,-0.16 c -667.1,0 -693.71,965.08 -693.71,1641.25 0,793.52 74.22,1554.26 693.71,1554.26 619.5,0 713.13,-770.31 713.13,-1553.44 z"
                                      style="fill:#000000;fill-opacity:1;fill-rule:nonzero;stroke:none"/></g></g></g></g></svg>
            <text x="34" font-size="12" y="131" clip-path="url(#clipPath15)"
                  stroke="none" xml:space="preserve">fcMoveRelativeCall(movement: RelativeMotion)</text>
            <line clip-path="url(#clipPath16)" fill="none" x1="11" x2="318"
                  y1="36" y2="36"/>
            <rect x="325" y="92" clip-path="url(#clipPath17)"
                  fill="rgb(131,122,133)" width="111" rx="0" height="44" ry="0"
                  opacity="0.2549" stroke="none"/>
            <rect x="326" y="93" clip-path="url(#clipPath17)"
                  fill="rgb(131,122,133)" width="111" rx="0" height="44" ry="0"
                  opacity="0.2549" stroke="none"/>
            <rect x="324" y="91" clip-path="url(#clipPath18)"
                  fill="url(#linearGradient2)" width="111" rx="0" height="44"
                  ry="0" stroke="none"/>
            <rect x="324" y="91" clip-path="url(#clipPath18)" fill="none"
                  width="110" rx="0" height="43" ry="0"/>
            <svg contentScriptType="text/ecmascript" zoomAndPan="magnify"
                 xmlns:rdf="http://www.w3.org/1999/02/22-rdf-syntax-ns#"
                 xmlns:xlink="http://www.w3.org/1999/xlink"
                 xmlns:svg="http://www.w3.org/2000/svg"
                 contentStyleType="text/css" id="Capa_1replaced6"
                 sodipodi:docname="_base64_datatype.svg" version="1.1"
                 xml:space="preserve" width="16"
                 xmlns:sodipodi="http://sodipodi.sourceforge.net/DTD/sodipodi-0.dtd"
                 xmlns:dc="http://purl.org/dc/elements/1.1/"
                 xmlns:inkscape="http://www.inkscape.org/namespaces/inkscape"
                 xmlns:cc="http://creativecommons.org/ns#"
                 preserveAspectRatio="xMidYMid meet"
                 inkscape:version="0.92.2 5c3e80d, 2017-08-06"
                 viewBox="0 0 15.999999 15.999998" height="16"
                 xmlns="http://www.w3.org/2000/svg" x="347" y="96">
                <sodipodi:namedview objecttolerance="10" bordercolor="#666666"
                                    inkscape:window-height="738"
                                    inkscape:zoom="35.937504" gridtolerance="10"
                                    id="namedview41replaced6"
                                    inkscape:current-layer="Capa_1"
                                    inkscape:window-y="0" inkscape:cy="7.999999"
                                    inkscape:window-x="0" inkscape:cx="8"
                                    showgrid="false" guidetolerance="10"
                                    inkscape:pageopacity="0"
                                    inkscape:pageshadow="2"
                                    inkscape:window-width="1208"
                                    inkscape:window-maximized="0"
                                    pagecolor="#ffffff" borderopacity="1"/>
                <metadata id="metadata47replaced6">
                    <rdf:RDF>
                        <cc:Work rdf:about="">
                            <dc:format>image/svg+xml</dc:format><dc:type rdf:resource="http://purl.org/dc/dcmitype/StillImage"/>
                            <dc:title/></cc:Work></rdf:RDF></metadata>
                <defs id="defs45replaced6"/>
                <g id="g10replaced6" style="fill:#000000"
                   transform="scale(0.03127119)">
                    <g style="fill:#000000" id="g8replaced6">
                        <path id="path2replaced6"
                              d="M 483.993,0 27.66,0.028 20.746,6.942 v 497.797 l 6.914,6.914 h 371.925 l 4.895,-2.027 84.401,-84.442 2.026,-4.888 V 6.914 Z m -77.189,487.744 1.03,-59.192 59.178,-1.037 z m 70.275,-74.237 -76.166,1.341 -6.797,6.79 -1.321,76.187 H 34.574 V 124.454 h 442.505 z m 0,-302.881 H 34.574 v -96.77 l 442.505,-0.028 z"
                              style="fill:#000000"/>
                        <path id="path4replaced6"
                              d="m 159.043,89.331 c 12.86,0 23.708,-8.822 26.778,-20.742 h 140.032 c 3.069,11.92 13.918,20.742 26.778,20.742 15.26,0 27.664,-12.404 27.664,-27.657 0,-15.253 -12.404,-27.657 -27.657,-27.657 -12.86,0 -23.708,8.822 -26.778,20.742 H 185.821 c -3.069,-11.92 -13.918,-20.742 -26.778,-20.742 -15.253,0 -27.657,12.404 -27.657,27.657 0,15.253 12.404,27.657 27.657,27.657 z M 352.631,47.846 c 7.626,0 13.828,6.202 13.828,13.828 0,7.626 -6.202,13.828 -13.828,13.828 -7.626,0 -13.828,-6.202 -13.828,-13.828 0,-7.626 6.202,-13.828 13.828,-13.828 z m -193.596,0 c 7.627,0 13.828,6.202 13.828,13.828 0,7.626 -6.202,13.828 -13.828,13.828 -7.626,0 -13.828,-6.202 -13.828,-13.828 0,-7.626 6.202,-13.828 13.828,-13.828 z"
                              style="fill:#000000"/>
                        <path id="path6replaced6"
                              d="m 317.584,428.967 1.41,-1.473 c 21.607,-22.574 40.261,-42.079 40.261,-116.337 0,-56.495 -14.409,-97.102 -42.826,-120.7 -17.376,-14.423 -49.042,-24.497 -77.017,-24.497 h -87.007 v 290.394 h 82.396 c 27.393,0 58.645,-2.116 82.783,-27.387 z M 166.233,442.525 V 179.788 h 73.179 c 25.036,0 53.066,8.767 68.18,21.309 25.105,20.846 37.834,57.871 37.834,110.059 0,68.706 -16.083,85.507 -36.431,106.775 l -1.41,1.487 C 289.2,438.653 266.1,442.525 234.8,442.525 Z"
                              style="fill:#000000"/></g></g>
                <g id="g12replaced6" transform="translate(-20.746,-495.653)"/>
                <g id="g14replaced6" transform="translate(-20.746,-495.653)"/>
                <g id="g16replaced6" transform="translate(-20.746,-495.653)"/>
                <g id="g18replaced6" transform="translate(-20.746,-495.653)"/>
                <g id="g20replaced6" transform="translate(-20.746,-495.653)"/>
                <g id="g22replaced6" transform="translate(-20.746,-495.653)"/>
                <g id="g24replaced6" transform="translate(-20.746,-495.653)"/>
                <g id="g26replaced6" transform="translate(-20.746,-495.653)"/>
                <g id="g28replaced6" transform="translate(-20.746,-495.653)"/>
                <g id="g30replaced6" transform="translate(-20.746,-495.653)"/>
                <g id="g32replaced6" transform="translate(-20.746,-495.653)"/>
                <g id="g34replaced6" transform="translate(-20.746,-495.653)"/>
                <g id="g36replaced6" transform="translate(-20.746,-495.653)"/>
                <g id="g38replaced6" transform="translate(-20.746,-495.653)"/>
                <g id="g40replaced6" transform="translate(-20.746,-495.653)"/></svg>
            <text x="366" y="109" clip-path="url(#clipPath20)"
                  font-family="&apos;Ubuntu&apos;" stroke="none"
                  xml:space="preserve">Battery</text>
            <text x="329" y="132" clip-path="url(#clipPath21)"
                  font-family="&apos;Ubuntu&apos;" stroke="none"
                  xml:space="preserve"> percentage: nat</text>
            <line clip-path="url(#clipPath22)" fill="none" x1="325" x2="434"
                  y1="117" y2="117"/>
            <rect x="325" y="11" clip-path="url(#clipPath23)"
                  fill="rgb(131,122,133)" width="111" rx="0" height="74" ry="0"
                  opacity="0.2549" stroke="none"/>
            <rect x="326" y="12" clip-path="url(#clipPath23)"
                  fill="rgb(131,122,133)" width="111" rx="0" height="74" ry="0"
                  opacity="0.2549" stroke="none"/>
            <rect x="324" y="10" clip-path="url(#clipPath24)"
                  fill="url(#linearGradient3)" width="111" rx="0" height="74"
                  ry="0" stroke="none"/>
            <rect x="324" y="10" clip-path="url(#clipPath24)" fill="none"
                  width="110" rx="0" height="73" ry="0"/>
            <svg contentScriptType="text/ecmascript" zoomAndPan="magnify"
                 xmlns:rdf="http://www.w3.org/1999/02/22-rdf-syntax-ns#"
                 xmlns:xlink="http://www.w3.org/1999/xlink"
                 xmlns:svg="http://www.w3.org/2000/svg"
                 contentStyleType="text/css" id="Capa_1replaced7"
                 sodipodi:docname="_base64_enumeration.svg" version="1.1"
                 width="16" xml:space="preserve"
                 xmlns:sodipodi="http://sodipodi.sourceforge.net/DTD/sodipodi-0.dtd"
                 xmlns:dc="http://purl.org/dc/elements/1.1/"
                 xmlns:inkscape="http://www.inkscape.org/namespaces/inkscape"
                 xmlns:cc="http://creativecommons.org/ns#"
                 preserveAspectRatio="xMidYMid meet"
                 inkscape:version="0.92.2 5c3e80d, 2017-08-06"
                 viewBox="0 0 15.999999 15.999999" height="16"
                 xmlns="http://www.w3.org/2000/svg" x="338" y="15">
                <sodipodi:namedview objecttolerance="10" bordercolor="#666666"
                                    inkscape:window-height="480"
                                    inkscape:zoom="14.75" gridtolerance="10"
                                    id="namedview63replaced7"
                                    inkscape:current-layer="Capa_1"
                                    inkscape:window-y="0" inkscape:cy="8"
                                    inkscape:window-x="0" inkscape:cx="8"
                                    showgrid="false" guidetolerance="10"
                                    inkscape:pageopacity="0"
                                    inkscape:pageshadow="2"
                                    inkscape:window-width="640"
                                    inkscape:window-maximized="0"
                                    pagecolor="#ffffff" borderopacity="1"/>
                <metadata id="metadata854replaced7">
                    <rdf:RDF>
                        <cc:Work rdf:about="">
                            <dc:format>image/svg+xml</dc:format><dc:type rdf:resource="http://purl.org/dc/dcmitype/StillImage"/>
                            <dc:title/></cc:Work></rdf:RDF></metadata>
                <defs id="defs852replaced7"/>
                <g id="g817replaced7" style="fill:#000000"
                   transform="matrix(0.03925417,0,0,0.03925417,-1.9473085e-5,1.54e-7)">
                    <path id="path815replaced7"
                          d="M 325.882,57.79 H 81.717 c -11.748,0 -21.306,9.552 -21.306,21.293 v 249.425 c 0,11.738 9.552,21.291 21.306,21.291 h 244.165 c 11.744,0 21.302,-9.553 21.302,-21.291 V 79.089 C 347.178,67.348 337.626,57.79 325.882,57.79 Z M 203.422,252.219 H 96.532 V 87.308 h 106.042 v 30.44 h -65.089 v 36.739 h 56.061 v 30.547 h -56.061 v 36.738 h 65.943 v 30.446 h -0.006 z M 365.832,0 H 41.763 C 20.626,0 3.485,17.142 3.485,38.281 v 331.035 c 0,21.144 17.141,38.284 38.278,38.284 h 324.075 c 21.138,0 38.278,-17.141 38.278,-38.284 V 38.275 C 404.116,17.142 386.976,0 365.832,0 Z m -3.558,328.509 c 0,20.055 -16.326,36.387 -36.393,36.387 H 81.717 c -20.064,0 -36.396,-16.326 -36.396,-36.387 V 79.089 c 0,-20.058 16.325,-36.39 36.396,-36.39 h 244.165 c 20.061,0 36.393,16.326 36.393,36.39 v 249.42 z"
                          style="fill:#000000"/></g>
                <g id="g819replaced7" transform="translate(-3.485,-391.6)"/>
                <g id="g821replaced7" transform="translate(-3.485,-391.6)"/>
                <g id="g823replaced7" transform="translate(-3.485,-391.6)"/>
                <g id="g825replaced7" transform="translate(-3.485,-391.6)"/>
                <g id="g827replaced7" transform="translate(-3.485,-391.6)"/>
                <g id="g829replaced7" transform="translate(-3.485,-391.6)"/>
                <g id="g831replaced7" transform="translate(-3.485,-391.6)"/>
                <g id="g833replaced7" transform="translate(-3.485,-391.6)"/>
                <g id="g835replaced7" transform="translate(-3.485,-391.6)"/>
                <g id="g837replaced7" transform="translate(-3.485,-391.6)"/>
                <g id="g839replaced7" transform="translate(-3.485,-391.6)"/>
                <g id="g841replaced7" transform="translate(-3.485,-391.6)"/>
                <g id="g843replaced7" transform="translate(-3.485,-391.6)"/>
                <g id="g845replaced7" transform="translate(-3.485,-391.6)"/>
                <g id="g847replaced7" transform="translate(-3.485,-391.6)"/></svg>
            <text x="357" y="28" clip-path="url(#clipPath26)"
                  font-family="&apos;Ubuntu&apos;" stroke="none"
                  xml:space="preserve">M600Task</text>
            <text x="329" y="51" clip-path="url(#clipPath27)"
                  font-family="&apos;Ubuntu&apos;" stroke="none"
                  xml:space="preserve"> GoHome</text>
            <text x="329" y="66" clip-path="url(#clipPath28)"
                  font-family="&apos;Ubuntu&apos;" stroke="none"
                  xml:space="preserve"> Land</text>
            <text x="329" y="81" clip-path="url(#clipPath29)"
                  font-family="&apos;Ubuntu&apos;" stroke="none"
                  xml:space="preserve"> TakeOff</text>
            <line clip-path="url(#clipPath30)" fill="none" x1="325" x2="434"
                  y1="36" y2="36"/>
            <rect x="440" y="11" clip-path="url(#clipPath31)"
                  fill="rgb(131,122,133)" width="98" rx="0" height="89" ry="0"
                  opacity="0.2549" stroke="none"/>
            <rect x="441" y="12" clip-path="url(#clipPath31)"
                  fill="rgb(131,122,133)" width="98" rx="0" height="89" ry="0"
                  opacity="0.2549" stroke="none"/>
            <rect x="439" y="10" clip-path="url(#clipPath32)"
                  fill="url(#linearGradient4)" width="98" rx="0" height="89"
                  ry="0" stroke="none"/>
            <rect x="439" y="10" clip-path="url(#clipPath32)" fill="none"
                  width="97" rx="0" height="88" ry="0"/>
            <svg contentScriptType="text/ecmascript" zoomAndPan="magnify"
                 xmlns:rdf="http://www.w3.org/1999/02/22-rdf-syntax-ns#"
                 xmlns:xlink="http://www.w3.org/1999/xlink"
                 xmlns:svg="http://www.w3.org/2000/svg"
                 contentStyleType="text/css" id="Capa_1replaced8"
                 sodipodi:docname="_base64_enumeration.svg" version="1.1"
                 width="16" xml:space="preserve"
                 xmlns:sodipodi="http://sodipodi.sourceforge.net/DTD/sodipodi-0.dtd"
                 xmlns:dc="http://purl.org/dc/elements/1.1/"
                 xmlns:inkscape="http://www.inkscape.org/namespaces/inkscape"
                 xmlns:cc="http://creativecommons.org/ns#"
                 preserveAspectRatio="xMidYMid meet"
                 inkscape:version="0.92.2 5c3e80d, 2017-08-06"
                 viewBox="0 0 15.999999 15.999999" height="16"
                 xmlns="http://www.w3.org/2000/svg" x="441" y="15">
                <sodipodi:namedview objecttolerance="10" bordercolor="#666666"
                                    inkscape:window-height="480"
                                    inkscape:zoom="14.75" gridtolerance="10"
                                    id="namedview63replaced8"
                                    inkscape:current-layer="Capa_1"
                                    inkscape:window-y="0" inkscape:cy="8"
                                    inkscape:window-x="0" inkscape:cx="8"
                                    showgrid="false" guidetolerance="10"
                                    inkscape:pageopacity="0"
                                    inkscape:pageshadow="2"
                                    inkscape:window-width="640"
                                    inkscape:window-maximized="0"
                                    pagecolor="#ffffff" borderopacity="1"/>
                <metadata id="metadata854replaced8">
                    <rdf:RDF>
                        <cc:Work rdf:about="">
                            <dc:format>image/svg+xml</dc:format><dc:type rdf:resource="http://purl.org/dc/dcmitype/StillImage"/>
                            <dc:title/></cc:Work></rdf:RDF></metadata>
                <defs id="defs852replaced8"/>
                <g id="g817replaced8" style="fill:#000000"
                   transform="matrix(0.03925417,0,0,0.03925417,-1.9473085e-5,1.54e-7)">
                    <path id="path815replaced8"
                          d="M 325.882,57.79 H 81.717 c -11.748,0 -21.306,9.552 -21.306,21.293 v 249.425 c 0,11.738 9.552,21.291 21.306,21.291 h 244.165 c 11.744,0 21.302,-9.553 21.302,-21.291 V 79.089 C 347.178,67.348 337.626,57.79 325.882,57.79 Z M 203.422,252.219 H 96.532 V 87.308 h 106.042 v 30.44 h -65.089 v 36.739 h 56.061 v 30.547 h -56.061 v 36.738 h 65.943 v 30.446 h -0.006 z M 365.832,0 H 41.763 C 20.626,0 3.485,17.142 3.485,38.281 v 331.035 c 0,21.144 17.141,38.284 38.278,38.284 h 324.075 c 21.138,0 38.278,-17.141 38.278,-38.284 V 38.275 C 404.116,17.142 386.976,0 365.832,0 Z m -3.558,328.509 c 0,20.055 -16.326,36.387 -36.393,36.387 H 81.717 c -20.064,0 -36.396,-16.326 -36.396,-36.387 V 79.089 c 0,-20.058 16.325,-36.39 36.396,-36.39 h 244.165 c 20.061,0 36.393,16.326 36.393,36.39 v 249.42 z"
                          style="fill:#000000"/></g>
                <g id="g819replaced8" transform="translate(-3.485,-391.6)"/>
                <g id="g821replaced8" transform="translate(-3.485,-391.6)"/>
                <g id="g823replaced8" transform="translate(-3.485,-391.6)"/>
                <g id="g825replaced8" transform="translate(-3.485,-391.6)"/>
                <g id="g827replaced8" transform="translate(-3.485,-391.6)"/>
                <g id="g829replaced8" transform="translate(-3.485,-391.6)"/>
                <g id="g831replaced8" transform="translate(-3.485,-391.6)"/>
                <g id="g833replaced8" transform="translate(-3.485,-391.6)"/>
                <g id="g835replaced8" transform="translate(-3.485,-391.6)"/>
                <g id="g837replaced8" transform="translate(-3.485,-391.6)"/>
                <g id="g839replaced8" transform="translate(-3.485,-391.6)"/>
                <g id="g841replaced8" transform="translate(-3.485,-391.6)"/>
                <g id="g843replaced8" transform="translate(-3.485,-391.6)"/>
                <g id="g845replaced8" transform="translate(-3.485,-391.6)"/>
                <g id="g847replaced8" transform="translate(-3.485,-391.6)"/></svg>
            <text x="460" y="28" clip-path="url(#clipPath34)"
                  font-family="&apos;Ubuntu&apos;" stroke="none"
                  xml:space="preserve">M600Action</text>
            <text x="444" y="51" clip-path="url(#clipPath35)"
                  font-family="&apos;Ubuntu&apos;" stroke="none"
                  xml:space="preserve"> Start</text>
            <text x="444" y="66" clip-path="url(#clipPath36)"
                  font-family="&apos;Ubuntu&apos;" stroke="none"
                  xml:space="preserve"> Stop</text>
            <text x="444" y="81" clip-path="url(#clipPath37)"
                  font-family="&apos;Ubuntu&apos;" stroke="none"
                  xml:space="preserve"> Pause</text>
            <text x="444" y="96" clip-path="url(#clipPath38)"
                  font-family="&apos;Ubuntu&apos;" stroke="none"
                  xml:space="preserve"> Resume</text>
            <line clip-path="url(#clipPath39)" fill="none" x1="440" x2="536"
                  y1="36" y2="36"/>
        </g>
    </g>
</svg>